<svg xmlns="http://www.w3.org/2000/svg" viewBox="0 0 64 64" role="img" aria-label="ZED">
  <rect width="64" height="64" fill="#1a044b"/>
  <rect x="2" y="2" width="60" height="60" fill="none" stroke="#eb008c" stroke-width="2"/>

  <!-- Z -->
  <rect x="8" y="18" width="15" height="4.5" fill="#fcf9ed"/>
  <polygon points="23,22.5 12.5,41.5 8,41.5 18.5,22.5" fill="#fcf9ed"/>
  <rect x="8" y="41.5" width="15" height="4.5" fill="#fcf9ed"/>

  <!-- E -->
  <rect x="27" y="18" width="4.5" height="28" fill="#fcf9ed"/>
  <rect x="27" y="18" width="14" height="4.5" fill="#fcf9ed"/>
  <rect x="27" y="29.75" width="11" height="4.5" fill="#fcf9ed"/>
  <rect x="27" y="41.5" width="14" height="4.5" fill="#fcf9ed"/>

  <!-- D -->
  <rect x="45" y="18" width="4.5" height="28" fill="#fcf9ed"/>
  <path fill="#fcf9ed" d="M49.5 18 H53.5 C58.8 18 62 23.2 62 32 C62 40.8 58.8 46 53.5 46 H49.5 V41.5 H53.5 C56.2 41.5 57.5 37.5 57.5 32 C57.5 26.5 56.2 22.5 53.5 22.5 H49.5 Z"/>

  <rect x="50" y="8" width="6" height="6" fill="#2babe2"/>
</svg>
